ffmpeg version 2.6.3-tessus Copyright (c) 2000-2015 the FFmpeg developers
  built with Apple LLVM version 6.0 (clang-600.0.57) (based on LLVM 3.5svn)
  configuration: --cc=/usr/bin/clang --prefix=/opt/ffmpeg --as=yasm --extra-version=tessus --enable-avisynth --enable-fontconfig --enable-gpl --enable-libass --enable-libbluray --enable-libfreetype --enable-libgsm --enable-libmodplug --enable-libmp3lame --enable-libopencore-amrnb --enable-libopencore-amrwb --enable-libopus --enable-libschroedinger --enable-libsoxr --enable-libspeex --enable-libtheora --enable-libvidstab --enable-libvo-aacenc --enable-libvo-amrwbenc --enable-libvorbis --enable-libvpx --enable-libwavpack --enable-libx264 --enable-libx265 --enable-libxavs --enable-libxvid --enable-libzmq --enable-version3 --disable-ffplay --disable-indev=qtkit --disable-indev=x11grab_xcb
  libavutil      54. 20.100 / 54. 20.100
  libavcodec     56. 26.100 / 56. 26.100
  libavformat    56. 25.101 / 56. 25.101
  libavdevice    56.  4.100 / 56.  4.100
  libavfilter     5. 11.102 /  5. 11.102
  libswscale      3.  1.101 /  3.  1.101
  libswresample   1.  1.100 /  1.  1.100
  libpostproc    53.  3.100 / 53.  3.100
Input #0, rawvideo, from 'pipe:':
  Duration: N/A, start: 0.000000, bitrate: 552960 kb/s
    Stream #0:0: Video: rawvideo (RGB[24] / 0x18424752), rgb24, 1280x720, 552960 kb/s, 25 tbr, 25 tbn, 25 tbc
[libx264 @ 0x7fb2ba001200] using cpu capabilities: MMX2 SSE2Fast SSSE3 SSE4.2 AVX AVX2 FMA3 LZCNT BMI2
[libx264 @ 0x7fb2ba001200] profile High, level 3.1
[libx264 @ 0x7fb2ba001200] 264 - core 142 - H.264/MPEG-4 AVC codec - Copyleft 2003-2014 - http://www.videolan.org/x264.html - options: cabac=1 ref=3 deblock=1:0:0 analyse=0x3:0x113 me=hex subme=7 psy=1 psy_rd=1.00:0.00 mixed_ref=1 me_range=16 chroma_me=1 trellis=1 8x8dct=1 cqm=0 deadzone=21,11 fast_pskip=1 chroma_qp_offset=-2 threads=12 lookahead_threads=2 sliced_threads=0 nr=0 decimate=1 interlaced=0 bluray_compat=0 constrained_intra=0 bframes=3 b_pyramid=2 b_adapt=1 b_bias=0 direct=1 weightb=1 open_gop=0 weightp=2 keyint=250 keyint_min=25 scenecut=40 intra_refresh=0 rc_lookahead=40 rc=crf mbtree=1 crf=23.0 qcomp=0.60 qpmin=0 qpmax=69 qpstep=4 ip_ratio=1.40 aq=1:1.00
Output #0, mp4, to 'output_video.mp4':
  Metadata:
    encoder         : Lavf56.25.101
    Stream #0:0: Video: h264 (libx264) ([33][0][0][0] / 0x0021), yuv420p, 1280x720, q=-1--1, 25 fps, 12800 tbn, 25 tbc (default)
    Metadata:
      encoder         : Lavc56.26.100 libx264
Stream mapping:
  Stream #0:0 -> #0:0 (rawvideo (native) -> h264 (libx264))
frame=    4 fps=0.0 q=0.0 size=       0kB time=00:00:00.00 bitrate=N/A    frame=    6 fps=4.3 q=0.0 size=       0kB time=00:00:00.00 bitrate=N/A    frame=    4 fps=0.7 q=0.0 size=   16879kB time=00:00:00.00 bitrate=N/A    av_interleaved_write_frame(): Immediate exit requested
frame=    4 fps=0.0 q=-1.0 Lsize=   16879kB time=-00:00:00.04 bitrate=N/A    
video:31kB audio:0kB subtitle:0kB other streams:0kB global headers:0kB muxing overhead: 53840.417969%
[libx264 @ 0x7f9e62009200] frame I:1     Avg QP:24.15  size: 31366
[libx264 @ 0x7f9e62009200] frame P:3     Avg QP:24.23  size: 10254
[libx264 @ 0x7f9e62009200] mb I  I16..4: 18.7% 68.1% 13.2%
[libx264 @ 0x7f9e62009200] mb P  I16..4:  5.0%  5.3%  0.7%  P16..4: 43.0% 11.5%  6.7%  0.0%  0.0%    skip:27.7%
[libx264 @ 0x7f9e62009200] 8x8 transform intra:63.1% inter:86.6%
[libx264 @ 0x7f9e62009200] coded y,uvDC,uvAC intra: 43.6% 58.1% 10.9% inter: 18.2% 30.0% 0.2%
[libx264 @ 0x7f9e62009200] i16 v,h,dc,p:  3% 54%  5% 38%
[libx264 @ 0x7f9e62009200] i8 v,h,dc,ddl,ddr,vr,hd,vl,hu: 13% 32% 25%  4%  5%  3%  7%  2%  8%
[libx264 @ 0x7f9e62009200] i4 v,h,dc,ddl,ddr,vr,hd,vl,hu: 20% 37% 15%  5%  5%  3%  8%  3%  6%
[libx264 @ 0x7f9e62009200] i8c dc,h,v,p: 52% 34% 10%  4%
[libx264 @ 0x7f9e62009200] Weighted P-Frames: Y:0.0% UV:0.0%
[libx264 @ 0x7f9e62009200] ref P L0: 74.2%  6.4% 15.9%  3.6%
[libx264 @ 0x7f9e62009200] kb/s:3106.45
Received signal 2: terminating.
    frame=   42 fps=3.0 q=0.0 size=       0kB time=00:00:00.00 bitrate=N/A    frame=   44 fps=3.0 q=0.0 size=       0kB time=00:00:00.00 bitrate=N/A    frame=   46 fps=3.0 q=0.0 size=       0kB time=00:00:00.00 bitrate=N/A    frame=   48 fps=3.0 q=0.0 size=       0kB time=00:00:00.00 bitrate=N/A    frame=   50 fps=3.0 q=0.0 size=       0kB time=00:00:00.00 bitrate=N/A    frame=   52 fps=3.0 q=0.0 size=       0kB time=00:00:00.00 bitrate=N/A    frame=   54 fps=3.0 q=0.0 size=       0kB time=00:00:00.00 bitrate=N/A    frame=   56 fps=3.0 q=0.0 size=       0kB time=00:00:00.00 bitrate=N/A    frame=   58 fps=3.0 q=28.0 size=      47kB time=00:00:00.00 bitrate=N/A    frame=   60 fps=3.0 q=28.0 size=      73kB time=00:00:00.08 bitrate=7480.0kbits/s    frame=   62 fps=3.0 q=28.0 size=      88kB time=00:00:00.16 bitrate=4519.4kbits/s    frame=   64 fps=3.0 q=28.0 size=     111kB time=00:00:00.24 bitrate=3776.1kbits/s    frame=   66 fps=3.0 q=28.0 size=     125kB time=00:00:00.32 bitrate=3212.3kbits/s    frame=   68 fps=3.0 q=28.0 size=     146kB time=00:00:00.40 bitrate=2987.2kbits/s    frame=   70 fps=3.0 q=28.0 size=     165kB time=00:00:00.48 bitrate=2816.4kbits/s    frame=   72 fps=3.0 q=28.0 size=     187kB time=00:00:00.56 bitrate=2733.6kbits/s  frame=   38 fps=0.6 q=0.0 size=   16879kB time=00:00:00.00 bitrate=N/A    av_interleaved_write_frame(): Immediate exit requested
frame=   38 fps=0.0 q=-1.0 Lsize=   16879kB time=-00:00:00.04 bitrate=N/A    
video:34kB audio:0kB subtitle:0kB other streams:0kB global headers:0kB muxing overhead: 49015.058594%
[libx264 @ 0x7fc8e3001200] frame I:1     Avg QP:23.79  size: 34514
[libx264 @ 0x7fc8e3001200] frame P:31    Avg QP:23.13  size: 11853
[libx264 @ 0x7fc8e3001200] frame B:6     Avg QP:24.69  size:  5701
[libx264 @ 0x7fc8e3001200] consecutive B-frames: 68.4% 31.6%  0.0%  0.0%
[libx264 @ 0x7fc8e3001200] mb I  I16..4: 19.0% 67.2% 13.8%
[libx264 @ 0x7fc8e3001200] mb P  I16..4:  4.8%  5.6%  0.5%  P16..4: 45.8% 12.5%  6.0%  0.0%  0.0%    skip:24.7%
[libx264 @ 0x7fc8e3001200] mb B  I16..4:  0.4%  0.5%  0.3%  B16..8: 45.8%  5.3%  0.6%  direct: 2.2%  skip:44.9%  L0:41.9% L1:54.2% BI: 3.9%
[libx264 @ 0x7fc8e3001200] 8x8 transform intra:54.7% inter:83.1%
[libx264 @ 0x7fc8e3001200] coded y,uvDC,uvAC intra: 29.0% 52.1% 6.5% inter: 19.5% 26.4% 0.3%
[libx264 @ 0x7fc8e3001200] i16 v,h,dc,p:  6% 52% 10% 32%
[libx264 @ 0x7fc8e3001200] i8 v,h,dc,ddl,ddr,vr,hd,vl,hu: 10% 25% 40%  3%  4%  3%  6%  2%  6%
[libx264 @ 0x7fc8e3001200] i4 v,h,dc,ddl,ddr,vr,hd,vl,hu: 20% 30% 24%  4%  4%  3%  7%  3%  4%
[libx264 @ 0x7fc8e3001200] i8c dc,h,v,p: 59% 27% 11%  3%
[libx264 @ 0x7fc8e3001200] Weighted P-Frames: Y:0.0% UV:0.0%
[libx264 @ 0x7fc8e3001200] ref P L0: 63.0% 13.6% 15.1%  8.4%
[libx264 @ 0x7fc8e3001200] ref B L0: 80.6% 19.4%
[libx264 @ 0x7fc8e3001200] kb/s:2295.54
Received signal 2: terminating.
6%  2%  6%
[libx264 @ 0x7fadb3001200] i4 v,h,dc,ddl,ddr,vr,hd,vl,hu: 20% 31% 24%  4%  4%  3%  6%  3%  4%
[libx264 @ 0x7fadb3001200] i8c dc,h,v,p: 59% 27% 11%  2%
[libx264 @ 0x7fadb3001200] Weighted P-Frames: Y:0.0% UV:0.0%
[libx264 @ 0x7fadb3001200] ref P L0: 62.6% 13.7% 15.3%  8.5%
[libx264 @ 0x7fadb3001200] ref B L0: 81.8% 18.2%
[libx264 @ 0x7fadb3001200] kb/s:2265.55
Received signal 2: terminating.
28.0 size=     709kB time=00:00:02.48 bitrate=2342.8kbits/s    frame=  122 fps=3.0 q=28.0 size=     729kB time=00:00:02.56 bitrate=2332.8kbits/s    frame=  124 fps=3.0 q=28.0 size=     747kB time=00:00:02.64 bitrate=2316.8kbits/s    frame=  126 fps=3.0 q=28.0 size=     764kB time=00:00:02.72 bitrate=2302.1kbits/s    frame=  128 fps=3.0 q=28.0 size=     786kB time=00:00:02.80 bitrate=2299.2kbits/s    frame=  130 fps=3.0 q=28.0 size=     804kB time=00:00:02.88 bitrate=2288.3kbits/s    frame=  132 fps=3.0 q=28.0 size=     823kB time=00:00:02.96 bitrate=2277.5kbits/s    frame=  134 fps=3.0 q=28.0 size=     844kB time=00:00:03.04 bitrate=2275.3kbits/s    frame=  136 fps=3.0 q=28.0 size=     866kB time=00:00:03.12 bitrate=2273.6kbits/s    frame=  138 fps=3.0 q=28.0 size=     887kB time=00:00:03.20 bitrate=2270.8kbits/s    frame=  140 fps=3.0 q=28.0 size=     908kB time=00:00:03.28 bitrate=2268.8kbits/s    frame=  142 fps=3.0 q=28.0 size=     930kB time=00:00:03.36 bitrate=2266.9kbits/s    frame=  144 fps=3.0 q=28.0 size=     952kB time=00:00:03.44 bitrate=2266.6kbits/s    frame=  146 fps=3.0 q=28.0 size=     974kB time=00:00:03.52 bitrate=2266.3kbits/s    frame=  148 fps=3.0 q=28.0 size=     998kB time=00:00:03.60 bitrate=2270.6kbits/s    frame=  150 fps=3.0 q=28.0 size=    1022kB time=00:00:03.68 bitrate=2275.0kbits/s    frame=  152 fps=3.0 q=28.0 size=    1039kB time=00:00:03.76 bitrate=2263.7kbits/s    frame=  154 fps=3.0 q=28.0 size=    1056kB time=00:00:03.84 bitrate=2252.8kbits/s    frame=  156 fps=3.0 q=28.0 size=    1072kB time=00:00:03.92 bitrate=2241.3kbits/s    frame=  158 fps=3.0 q=28.0 size=    1093kB time=00:00:04.00 bitrate=2239.1kbits/s    frame=  160 fps=3.0 q=28.0 size=    1115kB time=00:00:04.08 bitrate=2238.8kbits/s    frame=  162 fps=3.0 q=28.0 size=    1136kB time=00:00:04.16 bitrate=2237.7kbits/s    frame=  164 fps=3.0 q=28.0 size=    1158kB time=00:00:04.24 bitrate=2236.6kbits/s    frame=  166 fps=3.0 q=28.0 size=    1177kB time=00:00:04.32 bitrate=2232.9kbits/s    frame=  168 fps=3.0 q=28.0 size=    1197kB time=00:00:04.40 bitrate=2229.3kbits/s    frame=  170 fps=3.0 q=28.0 size=    1218kB time=00:00:04.48 bitrate=2227.3kbits/s    frame=  172 fps=3.0 q=28.0 size=    1240kB time=00:00:04.56 bitrate=2228.0kbits/s    frame=  174 fps=3.0 q=28.0 size=    1260kB time=00:00:04.64 bitrate=2225.2kbits/s    frame=  176 fps=3.0 q=28.0 size=    1280kB time=00:00:04.72 bitrate=2221.9kbits/s    frame=  178 fps=3.0 q=28.0 size=    1304kB time=00:00:04.80 bitrate=2225.9kbits/s    frame=  180 fps=3.0 q=28.0 size=    1323kB time=00:00:04.88 bitrate=2221.0kbits/s    frame=  182 fps=3.0 q=28.0 size=    1341kB time=00:00:04.96 bitrate=2215.1kbits/s    frame=  184 fps=3.0 q=28.0 size=    1359kB time=00:00:05.04 bitrate=2209.4kbits/s    frame=  186 fps=3.0 q=28.0 size=    1378kB time=00:00:05.12 bitrate=2205.0kbits/s    frame=  188 fps=3.0 q=28.0 size=    1396kB time=00:00:05.20 bitrate=2199.3kbits/s    frame=  190 fps=3.0 q=28.0 size=    1415kB time=00:00:05.28 bitrate=2195.0kbits/s    frame=  192 fps=3.0 q=28.0 size=    1436kB time=00:00:05.36 bitrate=2194.6kbits/s    frame=  194 fps=3.0 q=28.0 size=    1457kB time=00:00:05.44 bitrate=2193.8kbits/s    frame=  196 fps=3.0 q=28.0 size=    1477kB time=00:00:05.52 bitrate=2192.0kbits/s    frame=  198 fps=3.0 q=28.0 size=    1499kB time=00:00:05.60 bitrate=2192.8kbits/s    frame=  200 fps=3.0 q=28.0 size=    1521kB time=00:00:05.68 bitrate=2193.2kbits/s    frame=  202 fps=3.0 q=28.0 size=    1542kB time=00:00:05.76 bitrate=2192.4kbits/s    frame=  204 fps=3.0 q=28.0 size=    1563kB time=00:00:05.84 bitrate=2192.9kbits/s    frame=  206 fps=3.0 q=28.0 size=    1585kB time=00:00:05.92 bitrate=2193.9kbits/s    frame=  208 fps=3.0 q=28.0 size=    1611kB time=00:00:06.00 bitrate=2199.5kbits/s    frame=  210 fps=3.0 q=28.0 size=    1630kB time=00:00:06.08 bitrate=2196.8kbits/s    frame=  212 fps=3.0 q=28.0 size=    1657kB time=00:00:06.16 bitrate=2203.6kbits/s    frame=  214 fps=3.0 q=28.0 size=    1676kB time=00:00:06.24 bitrate=2200.8kbits/s    frame=  216 fps=3.0 q=28.0 size=    1695kB time=00:00:06.32 bitrate=2197.5kbits/s    frame=  218 fps=3.0 q=28.0 size=    1713kB time=00:00:06.40 bitrate=2192.6kbits/s    frame=  220 fps=3.0 q=28.0 size=    1731kB time=00:00:06.48 bitrate=2187.7kbits/s    frame=  222 fps=3.0 q=28.0 size=    1746kB time=00:00:06.56 bitrate=2180.9kbits/s    frame=  224 fps=3.0 q=28.0 size=    1766kB time=00:00:06.64 bitrate=2179.2kbits/s    frame=  226 fps=3.0 q=28.0 size=    1784kB time=00:00:06.72 bitrate=2175.3kbits/s    frame=  228 fps=3.0 q=28.0 size=    1802kB time=00:00:06.80 bitrate=2171.3kbits/s    frame=  230 fps=3.0 q=28.0 size=    1820kB time=00:00:06.88 bitrate=2167.3kbits/s    frame=  232 fps=3.0 q=28.0 size=    1838kB time=00:00:06.96 bitrate=2163.4kbits/s    frame=  234 fps=3.0 q=28.0 size=    1857kB time=00:00:07.04 bitrate=2160.3kbits/s    frame=  236 fps=3.0 q=28.0 size=    1874kB time=00:00:07.12 bitrate=2156.3kbits/s    frame=  238 fps=3.0 q=28.0 size=    1899kB time=00:00:07.20 bitrate=2160.5kbits/s    frame=  240 fps=3.0 q=28.0 size=    1920kB time=00:00:07.28 bitrate=2160.5kbits/s    frame=  242 fps=3.0 q=28.0 size=    1938kB time=00:00:07.36 bitrate=2156.9kbits/s    frame=  244 fps=3.0 q=28.0 size=    1957kB time=00:00:07.44 bitrate=2154.6kbits/s    frame=  246 fps=3.0 q=28.0 size=    1975kB time=00:00:07.52 bitrate=2151.9kbits/s    frame=  248 fps=3.0 q=28.0 size=    1995kB time=00:00:07.60 bitrate=2150.2kbits/s    frame=  250 fps=3.0 q=28.0 size=    2013kB time=00:00:07.68 bitrate=2147.5kbits/s    frame=  252 fps=3.0 q=28.0 size=    2034kB time=00:00:07.76 bitrate=2147.1kbits/s    frame=  254 fps=3.0 q=28.0 size=    2056kB time=00:00:07.84 bitrate=2148.6kbits/s    frame=  256 fps=3.0 q=28.0 size=    2081kB time=00:00:07.92 bitrate=2152.5kbits/s    frame=  258 fps=3.0 q=28.0 size=    2100kB time=00:00:08.00 bitrate=2150.0kbits/s    frame=  260 fps=3.0 q=28.0 size=    2118kB time=00:00:08.08 bitrate=2147.1kbits/s    frame=  262 fps=3.0 q=28.0 size=    2133kB time=00:00:08.16 bitrate=2141.5kbits/s    frame=  264 fps=3.0 q=28.0 size=    2158kB time=00:00:08.24 bitrate=2145.6kbits/s    frame=  266 fps=3.0 q=28.0 size=    2174kB time=00:00:08.32 bitrate=2140.4kbits/s    frame=  268 fps=3.0 q=28.0 size=    2200kB time=00:00:08.40 bitrate=2145.9kbits/s    frame=  270 fps=3.0 q=28.0 size=    2218kB time=00:00:08.48 bitrate=2142.8kbits/s    frame=  272 fps=3.0 q=28.0 size=    2238kB time=00:00:08.56 bitrate=2141.8kbits/s    frame=  274 fps=3.0 q=28.0 size=    2258kB time=00:00:08.64 bitrate=2140.6kbits/s    frame=  276 fps=3.0 q=28.0 size=    2279kB time=00:00:08.72 bitrate=2140.8kbits/s    frame=  278 fps=3.0 q=28.0 size=    2298kB time=00:00:08.80 bitrate=2139.4kbits/s    frame=  280 fps=3.0 q=28.0 size=    2319kB time=00:00:08.88 bitrate=2138.9kbits/s    frame=  282 fps=3.0 q=28.0 size=    2339kB time=00:00:08.96 bitrate=2138.8kbits/s    frame=  284 fps=3.0 q=28.0 size=    2360kB time=00:00:09.04 bitrate=2138.5kbits/s    frame=  286 fps=3.0 q=28.0 size=    2381kB time=00:00:09.12 bitrate=2138.4kbits/s    frame=  288 fps=3.0 q=28.0 size=    2401kB time=00:00:09.20 bitrate=2138.1kbits/s    frame=  290 fps=3.0 q=28.0 size=    2422kB time=00:00:09.28 bitrate=2138.3kbits/s    frame=  292 fps=3.0 q=28.0 size=    2442kB time=00:00:09.36 bitrate=2137.3kbits/s    frame=  294 fps=3.0 q=28.0 size=    2462kB time=00:00:09.44 bitrate=2136.2kbits/s    frame=  296 fps=3.0 q=25.0 size=    2482kB time=00:00:09.52 bitrate=2135.4kbits/s    frame=  298 fps=3.0 q=28.0 size=    2509kB time=00:00:09.60 bitrate=2141.2kbits/s    frame=  300 fps=3.0 q=28.0 size=    2536kB time=00:00:09.68 bitrate=2146.4kbits/s    frame=  302 fps=3.0 q=28.0 size=    2556kB time=00:00:09.76 bitrate=2145.8kbits/s    frame=  304 fps=3.0 q=28.0 size=    2577kB time=00:00:09.84 bitrate=2145.0kbits/s    frame=  306 fps=3.0 q=28.0 size=    2589kB time=00:00:09.92 bitrate=2137.8kbits/s    frame=  308 fps=3.0 q=28.0 size=    2650kB time=00:00:10.00 bitrate=2170.7kbits/s    frame=  310 fps=3.0 q=28.0 size=    2670kB time=00:00:10.08 bitrate=2169.9kbits/s    frame=  312 fps=3.0 q=28.0 size=    2690kB time=00:00:10.16 bitrate=2168.8kbits/s    frame=  314 fps=3.0 q=28.0 size=    2709kB time=00:00:10.24 bitrate=2167.6kbits/s    frame=  316 fps=3.0 q=28.0 size=    2727kB time=00:00:10.32 bitrate=2164.3kbits/s    frame=  318 fps=3.0 q=28.0 size=    2751kB time=00:00:10.40 bitrate=2166.9kbits/s    frame=  320 fps=3.0 q=28.0 size=    2772kB time=00:00:10.48 bitrate=2166.5kbits/s    frame=  322 fps=3.0 q=28.0 size=    2792kB time=00:00:10.56 bitrate=2166.3kbits/s    frame=  324 fps=3.0 q=28.0 size=    2812kB time=00:00:10.64 bitrate=2165.4kbits/s    frame=  326 fps=3.0 q=28.0 size=    2831kB time=00:00:10.72 bitrate=2163.5kbits/s    frame=  328 fps=3.0 q=28.0 size=    2859kB time=00:00:10.80 bitrate=2168.8kbits/s    frame=  330 fps=3.0 q=28.0 size=    2879kB time=00:00:10.88 bitrate=2168.0kbits/s    frame=  332 fps=3.0 q=28.0 size=    2899kB time=00:00:10.96 bitrate=2166.8kbits/s    frame=  334 fps=3.0 q=28.0 size=    2919kB time=00:00:11.04 bitrate=2165.8kbits/s    frame=  336 fps=3.0 q=28.0 size=    2938kB time=00:00:11.12 bitrate=2164.6kbits/s    frame=  338 fps=3.0 q=28.0 size=    2957kB time=00:00:11.20 bitrate=2162.8kbits/s    frame=  340 fps=3.0 q=28.0 size=    2976kB time=00:00:11.28 bitrate=2161.3kbits/s    frame=  342 fps=3.0 q=28.0 size=    2996kB time=00:00:11.36 bitrate=2160.4kbits/s    frame=  344 fps=3.0 q=28.0 size=    3014kB time=00:00:11.44 bitrate=2158.2kbits/s    frame=  346 fps=3.0 q=28.0 size=    3035kB time=00:00:11.52 bitrate=2158.0kbits/s    frame=  348 fps=3.0 q=28.0 size=    3055kB time=00:00:11.60 bitrate=2157.4kbits/s    frame=  350 fps=3.0 q=28.0 size=    3074kB time=00:00:11.68 bitrate=2156.0kbits/s    frame=  352 fps=3.0 q=28.0 size=    3093kB time=00:00:11.76 bitrate=2154.7kbits/s    frame=  354 fps=3.0 q=28.0 size=    3113kB time=00:00:11.84 bitrate=2153.5kbits/s    frame=  356 fps=3.0 q=28.0 size=    3131kB time=00:00:11.92 bitrate=2151.8kbits/s    frame=  358 fps=3.0 q=28.0 size=    3161kB time=00:00:12.00 bitrate=2158.2kbits/s    frame=  360 fps=3.0 q=28.0 size=    3180kB time=00:00:12.08 bitrate=2156.7kbits/s    frame=  362 fps=3.0 q=28.0 size=    3199kB time=00:00:12.16 bitrate=2155.2kbits/s    frame=  364 fps=3.0 q=28.0 size=    3219kB time=00:00:12.24 bitrate=2154.5kbits/s    frame=  366 fps=3.0 q=28.0 size=    3239kB time=00:00:12.32 bitrate=2154.0kbits/s    frame=  368 fps=3.0 q=28.0 size=    3260kB time=00:00:12.40 bitrate=2153.5kbits/s    frame=  370 fps=3.0 q=28.0 size=    3279kB time=00:00:12.48 bitrate=2152.3kbits/s    frame=  372 fps=3.0 q=28.0 size=    3300kB time=00:00:12.56 bitrate=2152.0kbits/s    frame=  374 fps=3.0 q=28.0 size=    3321kB time=00:00:12.64 bitrate=2152.2kbits/s    frame=  376 fps=3.0 q=28.0 size=    3343kB time=00:00:12.72 bitrate=2153.2kbits/s    frame=  378 fps=3.0 q=28.0 size=    3364kB time=00:00:12.80 bitrate=2153.0kbits/s    frame=  380 fps=3.0 q=28.0 size=    3386kB time=00:00:12.88 bitrate=2153.4kbits/s    frame=  382 fps=3.0 q=28.0 size=    3408kB time=00:00:12.96 bitrate=2154.0kbits/s    frame=  384 fps=3.0 q=28.0 size=    3429kB time=00:00:13.04 bitrate=2154.4kbits/s    frame=  386 fps=3.0 q=28.0 size=    3448kB time=00:00:13.12 bitrate=2152.8kbits/s    frame=  388 fps=3.0 q=28.0 size=    3475kB time=00:00:13.20 bitrate=2156.9kbits/s    frame=  390 fps=3.0 q=28.0 size=    3499kB time=00:00:13.28 bitrate=2158.3kbits/s    frame=  392 fps=3.0 q=28.0 size=    3524kB time=00:00:13.36 bitrate=2160.6kbits/s    frame=  394 fps=3.0 q=28.0 size=    3556kB time=00:00:13.44 bitrate=2167.6kbits/s    frame=  396 fps=3.0 q=28.0 size=    3581kB time=00:00:13.52 bitrate=2170.0kbits/s    frame=  398 fps=3.0 q=28.0 size=    3607kB time=00:00:13.60 bitrate=2172.9kbits/s    frame=  400 fps=3.0 q=28.0 size=    3633kB time=00:00:13.68 bitrate=2175.8kbits/s    frame=  402 fps=3.0 q=28.0 size=    3660kB time=00:00:13.76 bitrate=2179.0kbits/s    frame=  404 fps=3.0 q=28.0 size=    3687kB time=00:00:13.84 bitrate=2182.1kbits/s    frame=  406 fps=3.0 q=28.0 size=    3713kB time=00:00:13.92 bitrate=2185.0kbits/s    frame=  408 fps=3.0 q=28.0 size=    3739kB time=00:00:14.00 bitrate=2187.8kbits/s    frame=  410 fps=3.0 q=28.0 size=    3764kB time=00:00:14.08 bitrate=2190.2kbits/s    frame=  412 fps=3.0 q=28.0 size=    3789kB time=00:00:14.16 bitrate=2192.2kbits/s    frame=  414 fps=3.0 q=28.0 size=    3814kB time=00:00:14.24 bitrate=2194.2kbits/s    frame=  416 fps=3.0 q=28.0 size=    3844kB time=00:00:14.32 bitrate=2199.2kbits/s    frame=  418 fps=3.0 q=28.0 size=    3870kB time=00:00:14.40 bitrate=2201.8kbits/s    frame=  420 fps=3.0 q=28.0 size=    3896kB time=00:00:14.48 bitrate=2203.9kbits/s    frame=  422 fps=3.0 q=28.0 size=    3922kB time=00:00:14.56 bitrate=2206.8kbits/s    frame=  424 fps=3.0 q=28.0 size=    3948kB time=00:00:14.64 bitrate=2209.3kbits/s    frame=  426 fps=3.0 q=28.0 size=    3975kB time=00:00:14.72 bitrate=2212.4kbits/s    frame=  428 fps=3.0 q=28.0 size=    4004kB time=00:00:14.80 bitrate=2216.3kbits/s    frame=  430 fps=3.0 q=28.0 size=    4032kB time=00:00:14.88 bitrate=2219.7kbits/s    frame=  432 fps=3.0 q=28.0 size=    4059kB time=00:00:14.96 bitrate=2222.6kbits/s    frame=  434 fps=3.0 q=28.0 size=    4085kB time=00:00:15.04 bitrate=2225.2kbits/s    frame=  436 fps=3.0 q=28.0 size=    4109kB time=00:00:15.12 bitrate=2226.3kbits/s    frame=  438 fps=3.0 q=28.0 size=    4136kB time=00:00:15.20 bitrate=2229.3kbits/s    frame=  440 fps=3.0 q=28.0 size=    4163kB time=00:00:15.28 bitrate=2231.7kbits/s    frame=  442 fps=3.0 q=28.0 size=    4187kB time=00:00:15.36 bitrate=2233.2kbits/s    frame=  444 fps=3.0 q=28.0 size=    4214kB time=00:00:15.44 bitrate=2235.7kbits/s    frame=  446 fps=3.0 q=28.0 size=    4238kB time=00:00:15.52 bitrate=2237.2kbits/s    frame=  448 fps=3.0 q=28.0 size=    4268kB time=00:00:15.60 bitrate=2241.0kbits/s    frame=  450 fps=3.0 q=28.0 size=    4294kB time=00:00:15.68 bitrate=2243.3kbits/s    frame=  452 fps=3.0 q=28.0 size=    4318kB time=00:00:15.76 bitrate=2244.6kbits/s    frame=  454 fps=3.0 q=28.0 size=    4343kB time=00:00:15.84 bitrate=2246.1kbits/s    frame=  456 fps=3.0 q=28.0 size=    4367kB time=00:00:15.92 bitrate=2247.3kbits/s    frame=  458 fps=3.0 q=28.0 size=    4393kB time=00:00:16.00 bitrate=2249.1kbits/s    frame=  460 fps=3.0 q=28.0 size=    4416kB time=00:00:16.08 bitrate=2249.8kbits/s    frame=  462 fps=3.0 q=28.0 size=    4448kB time=00:00:16.16 bitrate=2254.7kbits/s    frame=  464 fps=3.0 q=28.0 size=    4472kB time=00:00:16.24 bitrate=2255.9kbits/s    frame=  466 fps=3.0 q=28.0 size=    4496kB time=00:00:16.32 bitrate=2257.0kbits/s    frame=  468 fps=3.0 q=28.0 size=    4521kB time=00:00:16.40 bitrate=2258.4kbits/s    frame=  470 fps=3.0 q=28.0 size=    4549kB time=00:00:16.48 bitrate=2261.1kbits/s    frame=  472 fps=3.0 q=28.0 size=    4576kB time=00:00:16.56 bitrate=2263.5kbits/s    frame=  474 fps=3.0 q=28.0 size=    4602kB time=00:00:16.64 bitrate=2265.5kbits/s    frame=  476 fps=3.0 q=28.0 size=    4624kB time=00:00:16.72 bitrate=2265.5kbits/s    frame=  478 fps=3.0 q=28.0 size=    4656kB time=00:00:16.80 bitrate=2270.6kbits/s    frame=  480 fps=3.0 q=28.0 size=    4683kB time=00:00:16.88 bitrate=2272.6kbits/s    frame=  482 fps=3.0 q=28.0 size=    4710kB time=00:00:16.96 bitrate=2274.9kbits/s    frame=  484 fps=3.0 q=28.0 size=    4738kB time=00:00:17.04 bitrate=2277.8kbits/s    frame=  486 fps=3.0 q=28.0 size=    4763kB time=00:00:17.12 bitrate=2278.9kbits/s    frame=  488 fps=3.0 q=28.0 size=    4787kB time=00:00:17.20 bitrate=2280.1kbits/s    frame=  490 fps=3.0 q=28.0 size=    4812kB time=00:00:17.28 bitrate=2281.1kbits/s    frame=  492 fps=3.0 q=28.0 size=    4835kB time=00:00:17.36 bitrate=2281.6kbits/s    frame=  494 fps=3.0 q=28.0 size=    4859kB time=00:00:17.44 bitrate=2282.2kbits/s    frame=  496 fps=3.0 q=28.0 size=    4881kB time=00:00:17.52 bitrate=2282.5kbits/s    frame=  498 fps=3.0 q=28.0 size=    4904kB time=00:00:17.60 bitrate=2282.5kbits/s    frame=  500 fps=3.0 q=28.0 size=    4928kB time=00:00:17.68 bitrate=2283.2kbits/s    frame=  502 fps=3.0 q=28.0 size=    4949kB time=00:00:17.76 bitrate=2282.6kbits/s    frame=  504 fps=3.0 q=28.0 size=    4969kB time=00:00:17.84 bitrate=2281.9kbits/s    frame=  506 fps=3.0 q=28.0 size=    4990kB time=00:00:17.92 bitrate=2281.3kbits/s    frame=  508 fps=3.0 q=28.0 size=    5017kB time=00:00:18.00 bitrate=2283.1kbits/s    frame=  510 fps=3.0 q=28.0 size=    5039kB time=00:00:18.08 bitrate=2283.2kbits/s    frame=  512 fps=3.0 q=28.0 size=    5060kB time=00:00:18.16 bitrate=2282.4kbits/s    frame=  514 fps=3.0 q=28.0 size=    5081kB time=00:00:18.24 bitrate=2281.8kbits/s    frame=  516 fps=3.0 q=28.0 size=    5102kB time=00:00:18.32 bitrate=2281.2kbits/s    frame=  518 fps=3.0 q=28.0 size=    5123kB time=00:00:18.40 bitrate=2280.8kbits/s    frame=  520 fps=3.0 q=28.0 size=    5144kB time=00:00:18.48 bitrate=2280.5kbits/s    frame=  522 fps=3.0 q=28.0 size=    5165kB time=00:00:18.56 bitrate=2279.6kbits/s    frame=  524 fps=3.0 q=28.0 size=    5186kB time=00:00:18.64 bitrate=2279.3kbits/s    frame=  526 fps=3.0 q=28.0 size=    5208kB time=00:00:18.72 bitrate=2279.0kbits/s    frame=  528 fps=3.0 q=28.0 size=    5229kB time=00:00:18.80 bitrate=2278.6kbits/s    frame=  530 fps=3.0 q=28.0 size=    5250kB time=00:00:18.88 bitrate=2277.8kbits/s    frame=  532 fps=3.0 q=28.0 size=    5271kB time=00:00:18.96 bitrate=2277.3kbits/s    frame=  534 fps=3.0 q=28.0 size=    5293kB time=00:00:19.04 bitrate=2277.1kbits/s    frame=  536 fps=3.0 q=28.0 size=    5315kB time=00:00:19.12 bitrate=2277.1kbits/s    frame=  538 fps=3.0 q=28.0 size=    5340kB time=00:00:19.20 bitrate=2278.6kbits/s    frame=  540 fps=3.0 q=28.0 size=    5363kB time=00:00:19.28 bitrate=2278.7kbits/s    frame=  542 fps=3.0 q=28.0 size=    5387kB time=00:00:19.36 bitrate=2279.5kbits/s    frame=  544 fps=3.0 q=28.0 size=    5411kB time=00:00:19.44 bitrate=2280.3kbits/s    frame=  546 fps=3.0 q=25.0 size=    5436kB time=00:00:19.52 bitrate=2281.3kbits/s    frame=  548 fps=3.0 q=28.0 size=    5462kB time=00:00:19.60 bitrate=2283.0kbits/s    frame=  550 fps=3.0 q=28.0 size=    5488kB time=00:00:19.68 bitrate=2284.6kbits/s    frame=  552 fps=3.0 q=28.0 size=    5514kB time=00:00:19.76 bitrate=2285.9kbits/s    frame=  554 fps=3.0 q=28.0 size=    5539kB time=00:00:19.84 bitrate=2287.2kbits/s    frame=  556 fps=3.0 q=28.0 size=    5566kB time=00:00:19.92 bitrate=2289.0kbits/s    frame=  558 fps=3.0 q=28.0 size=    5646kB time=00:00:20.00 bitrate=2312.4kbits/s    frame=  560 fps=3.0 q=28.0 size=    5669kB time=00:00:20.08 bitrate=2312.9kbits/s    frame=  562 fps=3.0 q=28.0 size=    5705kB time=00:00:20.16 bitrate=2318.2kbits/s    frame=  564 fps=3.0 q=28.0 size=    5739kB time=00:00:20.24 bitrate=2322.9kbits/s    frame=  566 fps=3.0 q=28.0 size=    5775kB time=00:00:20.32 bitrate=2328.2kbits/s    frame=  568 fps=3.0 q=28.0 size=    5820kB time=00:00:20.40 bitrate=2337.3kbits/s    frame=  570 fps=3.0 q=28.0 size=    5866kB time=00:00:20.48 bitrate=2346.2kbits/s    frame=  572 fps=3.0 q=28.0 size=    5909kB time=00:00:20.56 bitrate=2354.5kbits/s    frame=  574 fps=3.0 q=28.0 size=    5952kB time=00:00:20.64 bitrate=2362.3kbits/s    frame=  576 fps=3.0 q=28.0 size=    5996kB time=00:00:20.72 bitrate=2370.7kbits/s    frame=  578 fps=3.0 q=28.0 size=    6039kB time=00:00:20.80 bitrate=2378.3kbits/s    frame=  580 fps=3.0 q=28.0 size=    6081kB time=00:00:20.88 bitrate=2385.8kbits/s    frame=  582 fps=3.0 q=28.0 size=    6125kB time=00:00:20.96 bitrate=2393.9kbits/s    frame=  584 fps=3.0 q=28.0 size=    6170kB time=00:00:21.04 bitrate=2402.2kbits/s    frame=  586 fps=3.0 q=28.0 size=    6214kB time=00:00:21.12 bitrate=2410.3kbits/s    frame=  588 fps=3.0 q=28.0 size=    6260kB time=00:00:21.20 bitrate=2419.0kbits/s    frame=  590 fps=3.0 q=28.0 size=    6303kB time=00:00:21.28 bitrate=2426.5kbits/s    frame=  592 fps=3.0 q=28.0 size=    6347kB time=00:00:21.36 bitrate=2434.1kbits/s    frame=  594 fps=3.0 q=28.0 size=    6396kB time=00:00:21.44 bitrate=2443.8kbits/s    frame=  596 fps=3.0 q=28.0 size=    6432kB time=00:00:21.52 bitrate=2448.5kbits/s    frame=  598 fps=3.0 q=28.0 size=    6483kB time=00:00:21.60 bitrate=2458.9kbits/s    frame=  600 fps=3.0 q=28.0 size=    6512kB time=00:00:21.68 bitrate=2460.7kbits/s    frame=  602 fps=3.0 q=28.0 size=    6544kB time=00:00:21.76 bitrate=2463.7kbits/s    frame=  604 fps=3.0 q=28.0 size=    6582kB time=00:00:21.84 bitrate=2468.8kbits/s    frame=  606 fps=3.0 q=28.0 size=    6608kB time=00:00:21.92 bitrate=2469.6kbits/s    frame=  608 fps=3.0 q=28.0 size=    6642kB time=00:00:22.00 bitrate=2473.3kbits/s    frame=  610 fps=3.0 q=28.0 size=    6679kB time=00:00:22.08 bitrate=2478.2kbits/s    frame=  612 fps=3.0 q=28.0 size=    6722kB time=00:00:22.16 bitrate=2485.1kbits/s    frame=  614 fps=3.0 q=28.0 size=    6755kB time=00:00:22.24 bitrate=2488.1kbits/s    frame=  616 fps=3.0 q=28.0 size=    6799kB time=00:00:22.32 bitrate=2495.3kbits/s    frame=  618 fps=3.0 q=28.0 size=    6830kB time=00:00:22.40 bitrate=2497.8kbits/s    frame=  620 fps=3.0 q=28.0 size=    6869kB time=00:00:22.48 bitrate=2503.3kbits/s    frame=  622 fps=3.0 q=28.0 size=    6908kB time=00:00:22.56 bitrate=2508.3kbits/s    frame=  624 fps=3.0 q=28.0 size=    6941kB time=00:00:22.64 bitrate=2511.5kbits/s    frame=  626 fps=3.0 q=28.0 size=    6976kB time=00:00:22.72 bitrate=2515.3kbits/s    frame=  628 fps=3.0 q=28.0 size=    7015kB time=00:00:22.80 bitrate=2520.5kbits/s    frame=  630 fps=3.0 q=28.0 size=    7050kB time=00:00:22.88 bitrate=2524.2kbits/s    frame=  632 fps=3.0 q=28.0 size=    7085kB time=00:00:22.96 bitrate=2527.8kbits/s    frame=  634 fps=3.0 q=28.0 size=    7124kB time=00:00:23.04 bitrate=2533.0kbits/s    frame=  636 fps=3.0 q=28.0 size=    7157kB time=00:00:23.12 bitrate=2535.9kbits/s    frame=  638 fps=3.0 q=28.0 size=    7190kB time=00:00:23.20 bitrate=2538.8kbits/s    frame=  640 fps=3.0 q=28.0 size=    7221kB time=00:00:23.28 bitrate=2540.8kbits/s    frame=  642 fps=3.0 q=28.0 size=    7257kB time=00:00:23.36 bitrate=2545.1kbits/s    frame=  644 fps=3.0 q=28.0 size=    7286kB time=00:00:23.44 bitrate=2546.4kbits/s    frame=  646 fps=3.0 q=28.0 size=    7316kB time=00:00:23.52 bitrate=2548.1kbits/s    frame=  648 fps=3.0 q=28.0 size=    7343kB time=00:00:23.60 bitrate=2548.8kbits/s    frame=  650 fps=3.0 q=28.0 size=    7373kB time=00:00:23.68 bitrate=2550.5kbits/s    frame=  652 fps=3.0 q=28.0 size=    7403kB time=00:00:23.76 bitrate=2552.4kbits/s    frame=  654 fps=3.0 q=28.0 size=    7433kB time=00:00:23.84 bitrate=2554.3kbits/s    frame=  656 fps=3.0 q=28.0 size=    7460kB time=00:00:23.92 bitrate=2554.8kbits/s    frame=  658 fps=3.0 q=28.0 size=    7500kB time=00:00:24.00 bitrate=2560.1kbits/s    frame=  660 fps=3.0 q=28.0 size=    7529kB time=00:00:24.08 bitrate=2561.3kbits/s    frame=  662 fps=3.0 q=28.0 size=    7560kB time=00:00:24.16 bitrate=2563.3kbits/s    frame=  664 fps=3.0 q=28.0 size=    7590kB time=00:00:24.24 bitrate=2565.0kbits/s    frame=  666 fps=3.0 q=28.0 size=    7620kB time=00:00:24.32 bitrate=2566.9kbits/s    frame=  668 fps=3.0 q=28.0 size=    7647kB time=00:00:24.40 bitrate=2567.4kbits/s    frame=  670 fps=3.0 q=28.0 size=    7686kB time=00:00:24.48 bitrate=2571.9kbits/s    frame=  672 fps=3.0 q=28.0 size=    7715kB time=00:00:24.56 bitrate=2573.3kbits/s    frame=  674 fps=3.0 q=28.0 size=    7749kB time=00:00:24.64 bitrate=2576.1kbits/s    frame=  676 fps=3.0 q=28.0 size=    7788kB time=00:00:24.72 bitrate=2580.7kbits/s    frame=  678 fps=3.0 q=28.0 size=    7827kB time=00:00:24.80 bitrate=2585.4kbits/s    frame=  680 fps=3.0 q=28.0 size=    7866kB time=00:00:24.88 bitrate=2589.9kbits/s    frame=  682 fps=3.0 q=28.0 size=    7906kB time=00:00:24.96 bitrate=2594.6kbits/s    frame=  684 fps=3.0 q=28.0 size=    7945kB time=00:00:25.04 bitrate=2599.1kbits/s    frame=  686 fps=3.0 q=28.0 size=    7983kB time=00:00:25.12 bitrate=2603.5kbits/s    frame=  688 fps=3.0 q=28.0 size=    8027kB time=00:00:25.20 bitrate=2609.3kbits/s    frame=  690 fps=3.0 q=28.0 size=    8063kB time=00:00:25.28 bitrate=2612.8kbits/s    frame=  692 fps=3.0 q=28.0 size=    8108kB time=00:00:25.36 bitrate=2619.1kbits/s    frame=  694 fps=3.0 q=28.0 size=    8144kB time=00:00:25.44 bitrate=2622.6kbits/s    frame=  696 fps=3.0 q=28.0 size=    8177kB time=00:00:25.52 bitrate=2624.8kbits/s    frame=  698 fps=3.0 q=28.0 size=    8208kB time=00:00:25.60 bitrate=2626.7kbits/s    frame=  700 fps=3.0 q=28.0 size=    8237kB time=00:00:25.68 bitrate=2627.5kbits/s    frame=  702 fps=3.0 q=28.0 size=    8263kB time=00:00:25.76 bitrate=2627.7kbits/s    frame=  704 fps=3.0 q=28.0 size=    8286kB time=00:00:25.84 bitrate=2627.0kbits/s    frame=  706 fps=3.0 q=28.0 size=    8307kB time=00:00:25.92 bitrate=2625.4kbits/s    frame=  708 fps=3.0 q=28.0 size=    8327kB time=00:00:26.00 bitrate=2623.5kbits/s    frame=  710 fps=3.0 q=28.0 size=    8347kB time=00:00:26.08 bitrate=2621.8kbits/s    frame=  712 fps=3.0 q=28.0 size=    8365kB time=00:00:26.16 bitrate=2619.6kbits/s    frame=  714 fps=3.0 q=28.0 size=    8384kB time=00:00:26.24 bitrate=2617.4kbits/s    frame=  716 fps=3.0 q=28.0 size=    8400kB time=00:00:26.32 bitrate=2614.5kbits/s    frame=  718 fps=3.0 q=28.0 size=    8430kB time=00:00:26.40 bitrate=2615.8kbits/s    frame=  720 fps=3.0 q=28.0 size=    8447kB time=00:00:26.48 bitrate=2613.3kbits/s    frame=  722 fps=3.0 q=28.0 size=    8466kB time=00:00:26.56 bitrate=2611.1kbits/s    frame=  724 fps=3.0 q=28.0 size=    8483kB time=00:00:26.64 bitrate=2608.6kbits/s    frame=  726 fps=3.0 q=28.0 size=    8501kB time=00:00:26.72 bitrate=2606.2kbits/s    frame=  728 fps=3.0 q=28.0 size=    8518kB time=00:00:26.80 bitrate=2603.7kbits/s    frame=  730 fps=3.0 q=28.0 size=    8536kB time=00:00:26.88 bitrate=2601.4kbits/s    frame=  732 fps=3.0 q=28.0 size=    8553kB time=00:00:26.96 bitrate=2598.8kbits/s    frame=  734 fps=3.0 q=28.0 size=    8570kB time=00:00:27.04 bitrate=2596.2kbits/s    frame=  736 fps=3.0 q=28.0 size=    8586kB time=00:00:27.12 bitrate=2593.6kbits/s    frame=  738 fps=3.0 q=28.0 size=    8604kB time=00:00:27.20 bitrate=2591.2kbits/s    frame=  740 fps=3.0 q=28.0 size=    8620kB time=00:00:27.28 bitrate=2588.6kbits/s    frame=  742 fps=3.0 q=28.0 size=    8637kB time=00:00:27.36 bitrate=2586.1kbits/s    frame=  744 fps=3.0 q=28.0 size=    8655kB time=00:00:27.44 bitrate=2583.8kbits/s    frame=  746 fps=3.0 q=28.0 size=    8678kB time=00:00:27.52 bitrate=2583.2kbits/s    frame=  748 fps=3.0 q=28.0 size=    8696kB time=00:00:27.60 bitrate=2581.0kbits/s    frame=  750 fps=3.0 q=28.0 size=    8713kB time=00:00:27.68 bitrate=2578.8kbits/s    frame=  752 fps=3.0 q=28.0 size=    8730kB time=00:00:27.76 bitrate=2576.3kbits/s    frame=  754 fps=3.0 q=28.0 size=    8747kB time=00:00:27.84 bitrate=2574.0kbits/s    frame=  756 fps=3.0 q=28.0 size=    8766kB time=00:00:27.92 bitrate=2572.0kbits/s    frame=  758 fps=3.0 q=28.0 size=    8783kB time=00:00:28.00 bitrate=2569.5kbits/s    frame=  760 fps=3.0 q=28.0 size=    8801kB time=00:00:28.08 bitrate=2567.6kbits/s    frame=  762 fps=3.0 q=28.0 size=    8821kB time=00:00:28.16 bitrate=2566.1kbits/s    frame=  764 fps=3.0 q=28.0 size=    8841kB time=00:00:28.24 bitrate=2564.6kbits/s    frame=  766 fps=3.0 q=28.0 size=    8861kB time=00:00:28.32 bitrate=2563.3kbits/s    frame=  768 fps=3.0 q=28.0 size=    8882kB time=00:00:28.40 bitrate=2562.1kbits/s    frame=  770 fps=3.0 q=28.0 size=    8903kB time=00:00:28.48 bitrate=2561.0kbits/s    frame=  772 fps=3.0 q=28.0 size=    8924kB time=00:00:28.56 bitrate=2559.8kbits/s    frame=  774 fps=3.0 q=28.0 size=    8945kB time=00:00:28.64 bitrate=2558.5kbits/s    frame=  776 fps=3.0 q=28.0 size=    8971kB time=00:00:28.72 bitrate=2558.7kbits/s    frame=  778 fps=3.0 q=28.0 size=    8992kB time=00:00:28.80 bitrate=2557.8kbits/s    frame=  780 fps=3.0 q=28.0 size=    9014kB time=00:00:28.88 bitrate=2556.7kbits/s    frame=  782 fps=3.0 q=28.0 size=    9036kB time=00:00:28.96 bitrate=2556.0kbits/s    frame=  784 fps=3.0 q=28.0 size=    9058kB time=00:00:29.04 bitrate=2555.1kbits/s    frame=  786 fps=3.0 q=28.0 size=    9079kB time=00:00:29.12 bitrate=2554.1kbits/s    frame=  788 fps=3.0 q=28.0 size=    9101kB time=00:00:29.20 bitrate=2553.2kbits/s    frame=  790 fps=3.0 q=28.0 size=    9121kB time=00:00:29.28 bitrate=2552.0kbits/s    frame=  792 fps=3.0 q=28.0 size=    9144kB time=00:00:29.36 bitrate=2551.3kbits/s    frame=  794 fps=3.0 q=28.0 size=    9165kB time=00:00:29.44 bitrate=2550.3kbits/s    frame=  796 fps=3.0 q=25.0 size=    9186kB time=00:00:29.52 bitrate=2549.3kbits/s    frame=  798 fps=3.0 q=28.0 size=    9209kB time=00:00:29.60 bitrate=2548.5kbits/s    frame=  800 fps=3.0 q=28.0 size=    9231kB time=00:00:29.68 bitrate=2547.9kbits/s    frame=  802 fps=3.0 q=28.0 size=    9253kB time=00:00:29.76 bitrate=2547.2kbits/s    frame=  804 fps=3.0 q=28.0 size=    9276kB time=00:00:29.84 bitrate=2546.6kbits/s    frame=  806 fps=3.0 q=28.0 size=    9290kB time=00:00:29.92 bitrate=2543.7kbits/s    frame=  808 fps=3.0 q=28.0 size=    9365kB time=00:00:30.00 bitrate=2557.1kbits/s    frame=  810 fps=3.0 q=28.0 size=    9386kB time=00:00:30.08 bitrate=2556.3kbits/s    frame=  812 fps=3.0 q=28.0 size=    9408kB time=00:00:30.16 bitrate=2555.4kbits/s    frame=  814 fps=3.0 q=28.0 size=    9430kB time=00:00:30.24 bitrate=2554.6kbits/s    frame=  816 fps=3.0 q=28.0 size=    9452kB time=00:00:30.32 bitrate=2553.8kbits/s    frame=  818 fps=3.0 q=28.0 size=    9474kB time=00:00:30.40 bitrate=2553.0kbits/s    frame=  820 fps=3.0 q=28.0 size=    9496kB time=00:00:30.48 bitrate=2552.3kbits/s    frame=  822 fps=3.0 q=28.0 size=    9519kB time=00:00:30.56 bitrate=2551.8kbits/s    frame=  824 fps=3.0 q=28.0 size=    9543kB time=00:00:30.64 bitrate=2551.4kbits/s    frame=  826 fps=3.0 q=28.0 size=    9566kB time=00:00:30.72 bitrate=2551.0kbits/s    frame=  828 fps=3.0 q=28.0 size=    9590kB time=00:00:30.80 bitrate=2550.6kbits/s    frame=  830 fps=3.0 q=28.0 size=    9612kB time=00:00:30.88 bitrate=2550.0kbits/s    frame=  832 fps=3.0 q=28.0 size=    9636kB time=00:00:30.96 bitrate=2549.6kbits/s    frame=  834 fps=3.0 q=28.0 size=    9659kB time=00:00:31.04 bitrate=2549.3kbits/s    frame=  836 fps=3.0 q=28.0 size=    9688kB time=00:00:31.12 bitrate=2550.2kbits/s    frame=  838 fps=3.0 q=28.0 size=    9711kB time=00:00:31.20 bitrate=2549.7kbits/s    frame=  840 fps=3.0 q=28.0 size=    9734kB time=00:00:31.28 bitrate=2549.4kbits/s    frame=  842 fps=3.0 q=28.0 size=    9758kB time=00:00:31.36 bitrate=2549.0kbits/s    frame=  844 fps=3.0 q=28.0 size=    9782kB time=00:00:31.44 bitrate=2548.8kbits/s    frame=  846 fps=3.0 q=28.0 size=    9805kB time=00:00:31.52 bitrate=2548.3kbits/s    frame=  848 fps=3.0 q=28.0 size=    9829kB time=00:00:31.60 bitrate=2548.1kbits/s    frame=  850 fps=3.0 q=28.0 size=    9853kB time=00:00:31.68 bitrate=2547.9kbits/s    frame=  852 fps=3.0 q=28.0 size=    9877kB time=00:00:31.76 bitrate=2547.6kbits/s    frame=  854 fps=3.0 q=28.0 size=    9900kB time=00:00:31.84 bitrate=2547.1kbits/s    frame=  856 fps=3.0 q=28.0 size=    9923kB time=00:00:31.92 bitrate=2546.6kbits/s    frame=  858 fps=3.0 q=28.0 size=    9945kB time=00:00:32.00 bitrate=2546.0kbits/s    frame=  860 fps=3.0 q=28.0 size=    9968kB time=00:00:32.08 bitrate=2545.4kbits/s    frame=  862 fps=3.0 q=28.0 size=    9988kB time=00:00:32.16 bitrate=2544.3kbits/s    frame=  864 fps=3.0 q=28.0 size=   10008kB time=00:00:32.24 bitrate=2543.0kbits/s    frame=  866 fps=3.0 q=28.0 size=   10033kB time=00:00:32.32 bitrate=2543.1kbits/s    frame=  868 fps=3.0 q=28.0 size=   10054kB time=00:00:32.40 bitrate=2542.0kbits/s    frame=  870 fps=3.0 q=28.0 size=   10073kB time=00:00:32.48 bitrate=2540.6kbits/s    frame=  872 fps=3.0 q=28.0 size=   10092kB time=00:00:32.56 bitrate=2539.1kbits/s    frame=  874 fps=3.0 q=28.0 size=   10111kB time=00:00:32.64 bitrate=2537.6kbits/s    frame=  876 fps=3.0 q=28.0 size=   10130kB time=00:00:32.72 bitrate=2536.2kbits/s    frame=  878 fps=3.0 q=28.0 size=   10150kB time=00:00:32.80 bitrate=2535.0kbits/s    frame=  880 fps=3.0 q=28.0 size=   10169kB time=00:00:32.88 bitrate=2533.7kbits/s    frame=  882 fps=3.0 q=28.0 size=   10188kB time=00:00:32.96 bitrate=2532.2kbits/s    frame=  884 fps=3.0 q=28.0 size=   10208kB time=00:00:33.04 bitrate=2530.9kbits/s    frame=  886 fps=3.0 q=28.0 size=   10227kB time=00:00:33.12 bitrate=2529.6kbits/s    frame=  888 fps=3.0 q=28.0 size=   10246kB time=00:00:33.20 bitrate=2528.1kbits/s    frame=  890 fps=3.0 q=28.0 size=   10265kB time=00:00:33.28 bitrate=2526.8kbits/s    frame=  892 fps=3.0 q=28.0 size=   10285kB time=00:00:33.36 bitrate=2525.6kbits/s    frame=  894 fps=3.0 q=28.0 size=   10305kB time=00:00:33.44 bitrate=2524.5kbits/s    frame=  896 fps=3.0 q=28.0 size=   10329kB time=00:00:33.52 bitrate=2524.3kbits/s    frame=  898 fps=3.0 q=28.0 size=   10347kB time=00:00:33.60 bitrate=2522.8kbits/s    frame=  900 fps=3.0 q=28.0 size=   10369kB time=00:00:33.68 bitrate=2522.0kbits/s    frame=  902 fps=3.0 q=28.0 size=   10388kB time=00:00:33.76 bitrate=2520.7kbits/s    frame=  904 fps=3.0 q=28.0 size=   10407kB time=00:00:33.84 bitrate=2519.4kbits/s    frame=  906 fps=3.0 q=28.0 size=   10427kB time=00:00:33.92 bitrate=2518.2kbits/s    frame=  908 fps=3.0 q=28.0 size=   10448kB time=00:00:34.00 bitrate=2517.3kbits/s    frame=  910 fps=3.0 q=28.0 size=   10467kB time=00:00:34.08 bitrate=2516.0kbits/s    frame=  912 fps=3.0 q=28.0 size=   10489kB time=00:00:34.16 bitrate=2515.3kbits/s    frame=  914 fps=3.0 q=28.0 size=   10510kB time=00:00:34.24 bitrate=2514.6kbits/s    frame=  916 fps=3.0 q=28.0 size=   10532kB time=00:00:34.32 bitrate=2513.9kbits/s    frame=  918 fps=3.0 q=28.0 size=   10552kB time=00:00:34.40 bitrate=2512.9kbits/s    frame=  920 fps=3.0 q=28.0 size=   10573kB time=00:00:34.48 bitrate=2512.0kbits/s    frame=  922 fps=3.0 q=28.0 size=   10594kB time=00:00:34.56 bitrate=2511.1kbits/s    frame=  924 fps=3.0 q=28.0 size=   10614kB time=00:00:34.64 bitrate=2510.1kbits/s    frame=  926 fps=3.0 q=28.0 size=   10635kB time=00:00:34.72 bitrate=2509.3kbits/s    frame=  928 fps=3.0 q=28.0 size=   10667kB time=00:00:34.80 bitrate=2511.0kbits/s    frame=  930 fps=3.0 q=28.0 size=   10684kB time=00:00:34.88 bitrate=2509.2kbits/s    frame=  932 fps=3.0 q=28.0 size=   10704kB time=00:00:34.96 bitrate=2508.2kbits/s    frame=  934 fps=3.0 q=28.0 size=   10725kB time=00:00:35.04 bitrate=2507.4kbits/s    frame=  936 fps=3.0 q=28.0 size=   10746kB time=00:00:35.12 bitrate=2506.6kbits/s    frame=  938 fps=3.0 q=28.0 size=   10767kB time=00:00:35.20 bitrate=2505.7kbits/s    frame=  940 fps=3.0 q=28.0 size=   10788kB time=00:00:35.28 bitrate=2505.1kbits/s    frame=  942 fps=3.0 q=28.0 size=   10810kB time=00:00:35.36 bitrate=2504.4kbits/s    frame=  944 fps=3.0 q=28.0 size=   10831kB time=00:00:35.44 bitrate=2503.6kbits/s    frame=  946 fps=3.0 q=28.0 size=   10852kB time=00:00:35.52 bitrate=2502.7kbits/s    frame=  948 fps=3.0 q=28.0 size=   10873kB time=00:00:35.60 bitrate=2502.0kbits/s    frame=  950 fps=3.0 q=28.0 size=   10893kB time=00:00:35.68 bitrate=2501.0kbits/s    frame=  952 fps=3.0 q=28.0 size=   10916kB time=00:00:35.76 bitrate=2500.8kbits/s    frame=  954 fps=3.0 q=28.0 size=   10938kB time=00:00:35.84 bitrate=2500.1kbits/s    frame=  956 fps=3.0 q=28.0 size=   10958kB time=00:00:35.92 bitrate=2499.2kbits/s    frame=  958 fps=3.0 q=28.0 size=   10993kB time=00:00:36.00 bitrate=2501.5kbits/s    frame=  960 fps=3.0 q=28.0 size=   11016kB time=00:00:36.08 bitrate=2501.1kbits/s    frame=  962 fps=3.0 q=28.0 size=   11037kB time=00:00:36.16 bitrate=2500.4kbits/s    frame=  964 fps=3.0 q=28.0 size=   11059kB time=00:00:36.24 bitrate=2499.9kbits/s    frame=  966 fps=3.0 q=28.0 size=   11080kB time=00:00:36.32 bitrate=2499.1kbits/s    frame=  968 fps=3.0 q=28.0 size=   11103kB time=00:00:36.40 bitrate=2498.7kbits/s    frame=  970 fps=3.0 q=28.0 size=   11126kB time=00:00:36.48 bitrate=2498.5kbits/s    frame=  972 fps=3.0 q=28.0 size=   11149kB time=00:00:36.56 bitrate=2498.2kbits/s    frame=  974 fps=3.0 q=28.0 size=   11174kB time=00:00:36.64 bitrate=2498.2kbits/s    frame=  976 fps=3.0 q=28.0 size=   11197kB time=00:00:36.72 bitrate=2498.0kbits/s    frame=  978 fps=3.0 q=28.0 size=   11221kB time=00:00:36.80 bitrate=2498.0kbits/s    frame=  980 fps=3.0 q=28.0 size=   11245kB time=00:00:36.88 bitrate=2497.9kbits/s    frame=  982 fps=3.0 q=28.0 size=   11270kB time=00:00:36.96 bitrate=2497.9kbits/s    frame=  984 fps=3.0 q=28.0 size=   11293kB time=00:00:37.04 bitrate=2497.6kbits/s    frame=  986 fps=3.0 q=28.0 size=   11312kB time=00:00:37.12 bitrate=2496.5kbits/s    frame=  988 fps=3.0 q=28.0 size=   11347kB time=00:00:37.20 bitrate=2498.9kbits/s    frame=  990 fps=3.0 q=28.0 size=   11372kB time=00:00:37.28 bitrate=2498.9kbits/s    frame=  992 fps=3.0 q=28.0 size=   11398kB time=00:00:37.36 bitrate=2499.2kbits/s    frame=  994 fps=3.0 q=28.0 size=   11423kB time=00:00:37.44 bitrate=2499.3kbits/s    frame=  996 fps=3.0 q=28.0 size=   11449kB time=00:00:37.52 bitrate=2499.7kbits/s    frame=  998 fps=3.0 q=28.0 size=   11474kB time=00:00:37.60 bitrate=2500.0kbits/s    frame= 1000 fps=3.0 q=28.0 size=   11500kB time=00:00:37.68 bitrate=2500.3kbits/s    frame= 1002 fps=3.0 q=28.0 size=   11535kB time=00:00:37.76 bitrate=2502.4kbits/s    frame= 1004 fps=3.0 q=28.0 size=   11562kB time=00:00:37.84 bitrate=2503.0kbits/s    frame= 1006 fps=3.0 q=28.0 size=   11590kB time=00:00:37.92 bitrate=2503.8kbits/s    frame= 1008 fps=3.0 q=28.0 size=   11617kB time=00:00:38.00 bitrate=2504.4kbits/s    frame= 1010 fps=3.0 q=28.0 size=   11647kB time=00:00:38.08 bitrate=2505.5kbits/s    frame= 1012 fps=3.0 q=28.0 size=   11672kB time=00:00:38.16 bitrate=2505.7kbits/s    frame= 1014 fps=3.0 q=28.0 size=   11708kB time=00:00:38.24 bitrate=2508.3kbits/s    frame= 1016 fps=3.0 q=28.0 size=   11751kB time=00:00:38.32 bitrate=2512.0kbits/s    frame= 1018 fps=3.0 q=28.0 size=   11799kB time=00:00:38.40 bitrate=2517.2kbits/s    frame= 1020 fps=3.0 q=28.0 size=   11848kB time=00:00:38.48 bitrate=2522.3kbits/s    frame= 1022 fps=3.0 q=28.0 size=   11900kB time=00:00:38.56 bitrate=2528.1kbits/s    frame= 1024 fps=3.0 q=28.0 size=   11958kB time=00:00:38.64 bitrate=2535.3kbits/s    frame= 1026 fps=3.0 q=28.0 size=   12018kB time=00:00:38.72 bitrate=2542.6kbits/s    frame= 1028 fps=3.0 q=28.0 size=   12078kB time=00:00:38.80 bitrate=2550.2kbits/s    frame= 1030 fps=3.0 q=28.0 size=   12143kB time=00:00:38.88 bitrate=2558.4kbits/s    frame= 1032 fps=3.0 q=28.0 size=   12201kB time=00:00:38.96 bitrate=2565.4kbits/s    frame= 1034 fps=3.0 q=28.0 size=   12255kB time=00:00:39.04 bitrate=2571.5kbits/s    frame= 1036 fps=3.0 q=28.0 size=   12307kB time=00:00:39.12 bitrate=2577.2kbits/s    frame= 1038 fps=3.0 q=28.0 size=   12358kB time=00:00:39.20 bitrate=2582.6kbits/s    frame= 1040 fps=2.9 q=28.0 size=   12399kB time=00:00:39.28 bitrate=2585.9kbits/s    frame= 1042 fps=2.9 q=28.0 size=   12432kB time=00:00:39.36 bitrate=2587.4kbits/s    frame= 1044 fps=2.9 q=28.0 size=   12474kB time=00:00:39.44 bitrate=2591.0kbits/s    frame= 1046 fps=2.9 q=25.0 size=   12502kB time=00:00:39.52 bitrate=2591.6kbits/s    frame= 1048 fps=2.9 q=28.0 size=   12546kB time=00:00:39.60 bitrate=2595.3kbits/s    frame= 1050 fps=2.9 q=28.0 size=   12579kB time=00:00:39.68 bitrate=2596.9kbits/s    frame= 1052 fps=2.9 q=28.0 size=   12624kB time=00:00:39.76 bitrate=2601.1kbits/s    frame= 1054 fps=3.0 q=28.0 size=   12654kB time=00:00:39.84 bitrate=2602.0kbits/s    frame= 1056 fps=3.0 q=28.0 size=   12690kB time=00:00:39.92 bitrate=2604.1kbits/s    frame= 1058 fps=3.0 q=28.0 size=   12773kB time=00:00:40.00 bitrate=2615.9kbits/s    frame= 1060 fps=2.9 q=28.0 size=   12815kB time=00:00:40.08 bitrate=2619.3kbits/s    frame= 1062 fps=3.0 q=28.0 size=   12858kB time=00:00:40.16 bitrate=2622.8kbits/s    frame= 1064 fps=3.0 q=28.0 size=   12903kB time=00:00:40.24 bitrate=2626.7kbits/s    frame= 1066 fps=3.0 q=28.0 size=   12958kB time=00:00:40.32 bitrate=2632.7kbits/s    frame= 1068 fps=3.0 q=28.0 size=   12995kB time=00:00:40.40 bitrate=2635.1kbits/s    frame= 1070 fps=3.0 q=28.0 size=   13047kB time=00:00:40.48 bitrate=2640.4kbits/s    frame= 1072 fps=2.9 q=28.0 size=   13102kB time=00:00:40.56 bitrate=2646.1kbits/s    frame= 1074 fps=2.9 q=28.0 size=   13159kB time=00:00:40.64 bitrate=2652.5kbits/s    frame= 1076 fps=2.9 q=28.0 size=   13217kB time=00:00:40.72 bitrate=2659.0kbits/s    frame= 1078 fps=2.9 q=28.0 size=   13288kB time=00:00:40.80 bitrate=2668.1kbits/s    frame= 1080 fps=2.9 q=28.0 size=   13352kB time=00:00:40.88 bitrate=2675.6kbits/s    frame= 1082 fps=2.9 q=28.0 size=   13419kB time=00:00:40.96 bitrate=2683.9kbits/s    frame= 1084 fps=2.9 q=28.0 size=   13483kB time=00:00:41.04 bitrate=2691.3kbits/s    frame= 1086 fps=2.9 q=28.0 size=   13551kB time=00:00:41.12 bitrate=2699.7kbits/s    frame= 1088 fps=3.0 q=28.0 size=   13616kB time=00:00:41.20 bitrate=2707.4kbits/s    frame= 1090 fps=2.9 q=28.0 size=   13682kB time=00:00:41.28 bitrate=2715.1kbits/s    frame= 1092 fps=2.9 q=28.0 size=   13749kB time=00:00:41.36 bitrate=2723.1kbits/s    frame= 1094 fps=2.9 q=28.0 size=   13815kB time=00:00:41.44 bitrate=2731.0kbits/s    frame= 1096 fps=2.9 q=28.0 size=   13878kB time=00:00:41.52 bitrate=2738.1kbits/s    frame= 1098 fps=2.9 q=28.0 size=   13932kB time=00:00:41.60 bitrate=2743.5kbits/s    frame= 1100 fps=2.9 q=28.0 size=   13984kB time=00:00:41.68 bitrate=2748.5kbits/s    frame= 1102 fps=2.9 q=28.0 size=   14033kB time=00:00:41.76 bitrate=2752.8kbits/s    frame= 1104 fps=2.9 q=28.0 size=   14074kB time=00:00:41.84 bitrate=2755.6kbits/s    frame= 1106 fps=2.9 q=28.0 size=   14112kB time=00:00:41.92 bitrate=2757.8kbits/s    frame= 1108 fps=2.9 q=28.0 size=   14159kB time=00:00:42.00 bitrate=2761.8kbits/s    frame= 1110 fps=2.9 q=28.0 size=   14197kB time=00:00:42.08 bitrate=2763.8kbits/s    frame= 1112 fps=2.9 q=28.0 size=   14231kB time=00:00:42.16 bitrate=2765.2kbits/s    frame= 1114 fps=3.0 q=28.0 size=   14272kB time=00:00:42.24 bitrate=2767.9kbits/s    frame= 1116 fps=3.0 q=28.0 size=   14303kB time=00:00:42.32 bitrate=2768.7kbits/s    frame= 1118 fps=3.0 q=28.0 size=   14333kB time=00:00:42.40 bitrate=2769.2kbits/s    frame= 1120 fps=3.0 q=28.0 size=   14373kB time=00:00:42.48 bitrate=2771.7kbits/s    frame= 1122 fps=3.0 q=28.0 size=   14402kB time=00:00:42.56 bitrate=2772.2kbits/s    frame= 1124 fps=3.0 q=28.0 size=   14430kB time=00:00:42.64 bitrate=2772.2kbits/s    frame= 1126 fps=3.0 q=28.0 size=   14457kB time=00:00:42.72 bitrate=2772.2kbits/s    frame= 1128 fps=3.0 q=28.0 size=   14484kB time=00:00:42.80 bitrate=2772.2kbits/s    frame= 1130 fps=3.0 q=28.0 size=   14512kB time=00:00:42.88 bitrate=2772.3kbits/s    frame= 1132 fps=3.0 q=28.0 size=   14540kB time=00:00:42.96 bitrate=2772.6kbits/s    frame= 1134 fps=3.0 q=28.0 size=   14567kB time=00:00:43.04 bitrate=2772.6kbits/s    frame= 1136 fps=3.0 q=28.0 size=   14589kB time=00:00:43.12 bitrate=2771.6kbits/s    frame= 1138 fps=3.0 q=28.0 size=   14634kB time=00:00:43.20 bitrate=2775.1kbits/s    frame= 1140 fps=3.0 q=28.0 size=   14651kB time=00:00:43.28 bitrate=2773.1kbits/s    frame= 1142 fps=3.0 q=28.0 size=   14677kB time=00:00:43.36 bitrate=2772.9kbits/s    frame= 1144 fps=3.0 q=28.0 size=   14703kB time=00:00:43.44 bitrate=2772.6kbits/s    frame= 1146 fps=3.0 q=28.0 size=   14728kB time=00:00:43.52 bitrate=2772.4kbits/s    frame= 1148 fps=3.0 q=28.0 size=   14754kB time=00:00:43.60 bitrate=2772.2kbits/s    frame= 1150 fps=2.9 q=28.0 size=   14780kB time=00:00:43.68 bitrate=2771.9kbits/s    frame= 1152 fps=2.9 q=28.0 size=   14813kB time=00:00:43.76 bitrate=2773.0kbits/s    frame= 1154 fps=2.9 q=28.0 size=   14840kB time=00:00:43.84 bitrate=2773.0kbits/s    frame= 1156 fps=2.9 q=28.0 size=   14866kB time=00:00:43.92 bitrate=2772.9kbits/s    frame= 1158 fps=2.9 q=28.0 size=   14893kB time=00:00:44.00 bitrate=2772.8kbits/s    frame= 1160 fps=2.9 q=28.0 size=   14918kB time=00:00:44.08 bitrate=2772.5kbits/s    frame= 1162 fps=2.9 q=28.0 size=   14943kB time=00:00:44.16 bitrate=2772.0kbits/s    frame= 1164 fps=2.9 q=28.0 size=   14967kB time=00:00:44.24 bitrate=2771.5kbits/s    frame= 1166 fps=2.9 q=28.0 size=   14987kB time=00:00:44.32 bitrate=2770.2kbits/s    frame= 1168 fps=2.9 q=28.0 size=   15028kB time=00:00:44.40 bitrate=2772.8kbits/s    frame= 1170 fps=2.9 q=28.0 size=   15052kB time=00:00:44.48 bitrate=2772.2kbits/s    frame= 1172 fps=2.9 q=28.0 size=   15077kB time=00:00:44.56 bitrate=2771.8kbits/s    frame= 1174 fps=2.9 q=28.0 size=   15100kB time=00:00:44.64 bitrate=2771.0kbits/s    frame= 1176 fps=2.9 q=28.0 size=   15122kB time=00:00:44.72 bitrate=2770.2kbits/s    frame= 1178 fps=2.9 q=28.0 size=   15147kB time=00:00:44.80 bitrate=2769.7kbits/s    frame= 1180 fps=2.9 q=28.0 size=   15171kB time=00:00:44.88 bitrate=2769.2kbits/s    frame= 1182 fps=2.9 q=28.0 size=   15194kB time=00:00:44.96 bitrate=2768.5kbits/s    frame= 1184 fps=2.9 q=28.0 size=   15219kB time=00:00:45.04 bitrate=2768.0kbits/s    frame= 1186 fps=2.9 q=28.0 size=   15244kB time=00:00:45.12 bitrate=2767.7kbits/s    frame= 1188 fps=2.9 q=28.0 size=   15269kB time=00:00:45.20 bitrate=2767.3kbits/s    frame= 1190 fps=2.9 q=28.0 size=   15294kB time=00:00:45.28 bitrate=2767.0kbits/s    frame= 1192 fps=2.9 q=28.0 size=   15319kB time=00:00:45.36 bitrate=2766.6kbits/s    frame= 1194 fps=2.9 q=28.0 size=   15344kB time=00:00:45.44 bitrate=2766.2kbits/s    frame= 1196 fps=2.9 q=28.0 size=   15376kB time=00:00:45.52 bitrate=2767.2kbits/s    frame= 1198 fps=2.9 q=28.0 size=   15401kB time=00:00:45.60 bitrate=2766.8kbits/s    frame= 1200 fps=2.9 q=28.0 size=   15426kB time=00:00:45.68 bitrate=2766.4kbits/s    frame= 1202 fps=2.9 q=28.0 size=   15450kB time=00:00:45.76 bitrate=2765.8kbits/s    frame= 1204 fps=2.9 q=28.0 size=   15474kB time=00:00:45.84 bitrate=2765.4kbits/s    frame= 1206 fps=2.9 q=28.0 size=   15498kB time=00:00:45.92 bitrate=2764.9kbits/s    frame= 1208 fps=2.9 q=28.0 size=   15522kB time=00:00:46.00 bitrate=2764.3kbits/s    frame= 1210 fps=2.9 q=28.0 size=   15546kB time=00:00:46.08 bitrate=2763.7kbits/s    frame= 1212 fps=2.9 q=28.0 size=   15571kB time=00:00:46.16 bitrate=2763.3kbits/s    frame= 1214 fps=2.9 q=28.0 size=   15595kB time=00:00:46.24 bitrate=2762.8kbits/s    frame= 1216 fps=2.9 q=28.0 size=   15619kB time=00:00:46.32 bitrate=2762.3kbits/s    frame= 1218 fps=2.9 q=28.0 size=   15644kB time=00:00:46.40 bitrate=2762.0kbits/s    frame= 1220 fps=2.9 q=28.0 size=   15669kB time=00:00:46.48 bitrate=2761.6kbits/s    frame= 1222 fps=2.9 q=28.0 size=   15693kB time=00:00:46.56 bitrate=2761.1kbits/s    frame= 1224 fps=2.9 q=28.0 size=   15718kB time=00:00:46.64 bitrate=2760.8kbits/s    frame= 1226 fps=2.9 q=28.0 size=   15749kB time=00:00:46.72 bitrate=2761.5kbits/s    frame= 1228 fps=2.9 q=28.0 size=   15773kB time=00:00:46.80 bitrate=2761.0kbits/s    frame= 1230 fps=2.9 q=28.0 size=   15794kB time=00:00:46.88 bitrate=2759.9kbits/s    frame= 1232 fps=2.9 q=28.0 size=   15819kB time=00:00:46.96 bitrate=2759.5kbits/s    frame= 1234 fps=2.9 q=28.0 size=   15845kB time=00:00:47.04 bitrate=2759.5kbits/s    frame= 1236 fps=2.9 q=28.0 size=   15871kB time=00:00:47.12 bitrate=2759.3kbits/s    frame= 1238 fps=2.9 q=28.0 size=   15899kB time=00:00:47.20 bitrate=2759.4kbits/s    frame= 1240 fps=2.9 q=28.0 size=   15925kB time=00:00:47.28 bitrate=2759.2kbits/s    frame= 1242 fps=2.9 q=28.0 size=   15951kB time=00:00:47.36 bitrate=2759.2kbits/s    frame= 1244 fps=2.9 q=28.0 size=   15976kB time=00:00:47.44 bitrate=2758.8kbits/s    frame= 1246 fps=2.9 q=28.0 size=   16002kB time=00:00:47.52 bitrate=2758.6kbits/s    frame= 1248 fps=2.9 q=28.0 size=   16027kB time=00:00:47.60 bitrate=2758.3kbits/s    frame= 1250 fps=2.9 q=28.0 size=   16052kB time=00:00:47.68 bitrate=2757.9kbits/s    frame= 1252 fps=2.9 q=28.0 size=   16076kB time=00:00:47.76 bitrate=2757.4kbits/s    frame= 1254 fps=2.9 q=28.0 size=   16100kB time=00:00:47.84 bitrate=2756.9kbits/s    frame= 1256 fps=2.9 q=28.0 size=   16123kB time=00:00:47.92 bitrate=2756.3kbits/s    frame= 1258 fps=2.9 q=28.0 size=   16158kB time=00:00:48.00 bitrate=2757.7kbits/s    frame= 1260 fps=2.9 q=28.0 size=   16182kB time=00:00:48.08 bitrate=2757.1kbits/s    frame= 1260 fps=2.9 q=-1.0 Lsize=   16879kB time=00:00:50.32 bitrate=2747.8kbits/s    
video:16864kB audio:0kB subtitle:0kB other streams:0kB global headers:0kB muxing overhead: 0.085379%
[libx264 @ 0x7fb2ba001200] frame I:6     Avg QP:20.96  size: 53746
[libx264 @ 0x7fb2ba001200] frame P:752   Avg QP:23.21  size: 17563
[libx264 @ 0x7fb2ba001200] frame B:502   Avg QP:25.36  size:  7447
[libx264 @ 0x7fb2ba001200] consecutive B-frames: 20.4% 79.4%  0.2%  0.0%
[libx264 @ 0x7fb2ba001200] mb I  I16..4: 15.7% 67.6% 16.8%
[libx264 @ 0x7fb2ba001200] mb P  I16..4:  4.6%  7.8%  1.0%  P16..4: 45.1% 15.2%  7.1%  0.0%  0.0%    skip:19.2%
[libx264 @ 0x7fb2ba001200] mb B  I16..4:  0.4%  1.0%  0.4%  B16..8: 44.4%  6.4%  1.2%  direct: 2.6%  skip:43.7%  L0:39.8% L1:53.7% BI: 6.5%
[libx264 @ 0x7fb2ba001200] 8x8 transform intra:58.6% inter:79.5%
[libx264 @ 0x7fb2ba001200] coded y,uvDC,uvAC intra: 38.9% 51.9% 7.7% inter: 21.1% 23.7% 0.3%
[libx264 @ 0x7fb2ba001200] i16 v,h,dc,p:  7% 52% 11% 31%
[libx264 @ 0x7fb2ba001200] i8 v,h,dc,ddl,ddr,vr,hd,vl,hu: 10% 25% 33%  4%  5%  4%  8%  3%  8%
[libx264 @ 0x7fb2ba001200] i4 v,h,dc,ddl,ddr,vr,hd,vl,hu: 16% 26% 24%  5%  6%  5%  8%  4%  5%
[libx264 @ 0x7fb2ba001200] i8c dc,h,v,p: 61% 24% 11%  3%
[libx264 @ 0x7fb2ba001200] Weighted P-Frames: Y:0.8% UV:0.1%
[libx264 @ 0x7fb2ba001200] ref P L0: 62.3% 15.0% 14.4%  8.3%  0.0%
[libx264 @ 0x7fb2ba001200] ref B L0: 85.1% 14.9%  0.0%
[libx264 @ 0x7fb2ba001200] ref B L1: 100.0%  0.0%
[libx264 @ 0x7fb2ba001200] kb/s:2740.98
